<svg width="20" height="13" viewBox="0 0 20 13" fill="none" xmlns="http://www.w3.org/2000/svg">
<path fill-rule="evenodd" clip-rule="evenodd" d="M19.5804 0.477191C19.7134 0.628072 19.8189 0.807314 19.8909 1.00465C19.9629 1.20198 20 1.41353 20 1.62718C20 1.84083 19.9629 2.05237 19.8909 2.24971C19.8189 2.44704 19.7134 2.62628 19.5804 2.77716L11.0108 12.5228C10.8782 12.6741 10.7205 12.7941 10.547 12.876C10.3735 12.9579 10.1875 13 9.99962 13C9.81176 13 9.62574 12.9579 9.45222 12.876C9.2787 12.7941 9.12109 12.6741 8.98842 12.5228L0.418854 2.77716C0.150665 2.47217 -8.73594e-08 2.0585 -6.90545e-08 1.62718C-5.07497e-08 1.19585 0.150665 0.782185 0.418854 0.47719C0.687044 0.172195 1.05079 0.000849564 1.43006 0.000849581C1.80934 0.000849598 2.17308 0.172195 2.44127 0.47719L9.99962 9.0761L17.558 0.477191C17.6907 0.325928 17.8483 0.205918 18.0218 0.124034C18.1953 0.0421494 18.3813 -7.28773e-08 18.5692 -6.44191e-08C18.7571 -5.59609e-08 18.9431 0.0421494 19.1166 0.124034C19.2901 0.205918 19.4477 0.325928 19.5804 0.477191Z" fill="#262626" />
</svg>
