<svg width="24" height="27" viewBox="0 0 24 27" fill="none" xmlns="http://www.w3.org/2000/svg">
<path fill-rule="evenodd" clip-rule="evenodd" d="M2.73263 0H20.6006C20.9604 0.000920374 21.3165 0.072695 21.6485 0.211226C21.9806 0.349757 22.2821 0.55233 22.5358 0.807381C22.7896 1.06243 22.9906 1.36497 23.1274 1.69771C23.2642 2.03045 23.3342 2.38688 23.3333 2.74666V26.6666L20.4645 24.1318L18.8519 22.6385L17.1438 21.0512L17.8526 23.5199H2.73263C1.22667 23.5199 9.01091e-06 22.2933 9.01091e-06 20.7733V2.74666C-0.000913699 2.38688 0.0690358 2.03045 0.205864 1.69771C0.342692 1.36497 0.543719 1.06243 0.797466 0.807381C1.05121 0.55233 1.35271 0.349757 1.68475 0.211226C2.01679 0.072695 2.37286 0.000920374 2.73263 0ZM14.574 16.3312C14.9726 16.8406 15.4526 17.4133 15.4526 17.4133C18.35 17.3208 19.4937 15.4516 19.5316 15.3896C19.5322 15.3885 19.5326 15.388 19.5326 15.388C19.5326 11.0947 17.6126 7.61541 17.6126 7.61541C15.694 6.17401 13.8666 6.21472 13.8666 6.21472L13.68 6.42805C15.9466 7.12138 17.0007 8.12067 17.0007 8.12067C14.9574 6.99515 12.6066 6.55579 10.2947 6.86735C10.229 6.86735 10.1718 6.87682 10.109 6.88721C10.0955 6.88947 10.0816 6.89176 10.0673 6.89401C9.59998 6.93471 8.46735 7.10875 7.04139 7.73471C6.54876 7.96067 6.25402 8.12067 6.25402 8.12067C6.25402 8.12067 7.36139 7.06805 9.76138 6.37331L9.62805 6.21331C9.62805 6.21331 7.80209 6.17261 5.88209 7.61401C5.88209 7.61401 3.9621 11.0933 3.9621 15.3866C3.9621 15.3866 5.08069 17.3192 8.02665 17.4133C8.02665 17.4133 8.52068 16.8112 8.92068 16.3059C7.22665 15.7992 6.58665 14.7326 6.58665 14.7326C6.58665 14.7326 6.71999 14.8252 6.95999 14.9571C6.97504 14.9749 6.9937 14.9893 7.01472 14.9992C7.03311 15.0117 7.05151 15.0208 7.07004 15.03C7.09111 15.0404 7.11237 15.0509 7.13402 15.0666C7.4472 15.2395 7.77222 15.3901 8.10665 15.5171C8.74077 15.7685 9.39662 15.9611 10.0659 16.0926C11.8773 16.4404 13.7511 16.2461 15.4526 15.534C15.92 15.3599 16.4393 15.1045 16.9866 14.7452C16.9866 14.7452 16.32 15.8371 14.574 16.3312ZM7.89331 12.6679C7.89331 11.8539 8.49261 11.1872 9.25331 11.1872C10.0126 11.1872 10.6273 11.8525 10.6119 12.6679C10.6119 13.4792 10.0126 14.1486 9.25331 14.1486C8.50664 14.1486 7.89331 13.4792 7.89331 12.6679ZM12.7607 12.6679C12.7607 11.8539 13.36 11.1872 14.1207 11.1872C14.88 11.1872 15.4778 11.8525 15.4793 12.6679C15.4793 13.4792 14.88 14.1486 14.1207 14.1486C13.374 14.1486 12.7607 13.4792 12.7607 12.6679Z" fill="white"/>
</svg>
